<?xml version="1.0" encoding="UTF-8"?>
<svg width="14px" height="14px" viewBox="0 0 14 14" version="1.1" xmlns="http://www.w3.org/2000/svg" xmlns:xlink="http://www.w3.org/1999/xlink">
    <!-- Generator: Sketch 58 (84663) - https://sketch.com -->
    <title>zixunshoujipeizhi</title>
    <desc>Created with Sketch.</desc>
    <g id="租户管理" stroke="none" stroke-width="1" fill="none" fill-rule="evenodd" fill-opacity="0.65">
        <g id="租户详情-初始状态" transform="translate(-673.000000, -335.000000)" fill="#000000" fill-rule="nonzero">
            <g id="zixunshoujipeizhi" transform="translate(673.000000, 335.000000)">
                <path d="M12.7902748,2.34621947 L11.1747935,2.34621947 L11.1747935,1.1566092 C11.1747935,0.524874282 10.6609195,0.0110003592 10.0291846,0.0110003592 L1.14718032,0.0110003592 C0.515445402,0.0110003592 0.00157147989,0.524874282 0.00157147989,1.1566092 L0.00157147989,12.7148438 C0.00157147989,13.3465787 0.515445402,13.8604526 1.14718032,13.8604526 L12.7902748,13.8604526 C13.4220097,13.8604526 13.9358836,13.3465787 13.9358836,12.7148438 L13.9358836,3.4918283 C13.9358836,2.86009339 13.4220097,2.34621947 12.7902748,2.34621947 Z M8.49699174,12.7604167 L1.14718032,12.7604167 C1.12203664,12.7604167 1.1016074,12.7399874 1.1016074,12.7148438 L1.1016074,1.1566092 C1.1016074,1.13146552 1.12203664,1.11103628 1.14718032,1.11103628 L10.0291846,1.11103628 C10.0543283,1.11103628 10.0747575,1.13146552 10.0747575,1.1566092 L10.0747575,12.7148438 C10.0747575,12.7399874 10.0543283,12.7604167 10.0291846,12.7604167 L8.49699174,12.7604167 Z M12.8358477,12.7148437 C12.8358477,12.7399874 12.8154185,12.7604167 12.7902748,12.7604167 L11.1747935,12.7604167 C11.1747935,12.7447019 11.1763649,12.7289871 11.1763649,12.7148437 L11.1763649,3.44625539 L12.7918463,3.44625539 C12.8169899,3.44625539 12.8374192,3.46668463 12.8374192,3.4918283 L12.8374192,12.7148437 L12.8358477,12.7148437 Z" id="形状"></path>
                <path d="M8.05697737,3.22153376 L2.85537895,3.22153376 C2.55208333,3.22153376 2.30536099,3.46825611 2.30536099,3.77155172 C2.30536099,4.07484734 2.55208333,4.32156968 2.85537895,4.32156968 L8.05697737,4.32156968 C8.36027299,4.32156968 8.60699533,4.07484734 8.60699533,3.77155172 C8.60699533,3.46825611 8.36027299,3.22153376 8.05697737,3.22153376 Z M8.05697737,6.42106681 L2.85537895,6.42106681 C2.55208333,6.42106681 2.30536099,6.66778915 2.30536099,6.97108477 C2.30536099,7.27438039 2.55208333,7.52110273 2.85537895,7.52110273 L8.05697737,7.52110273 C8.36027299,7.52110273 8.60699533,7.27438039 8.60699533,6.97108477 C8.60699533,6.66778915 8.36027299,6.42106681 8.05697737,6.42106681 Z M8.05697737,9.62217134 L2.85537895,9.62217134 C2.55208333,9.62217134 2.30536099,9.86889368 2.30536099,10.1721893 C2.30536099,10.4754849 2.55208333,10.7222073 2.85537895,10.7222073 L8.05697737,10.7222073 C8.36027299,10.7222073 8.60699533,10.4754849 8.60699533,10.1721893 C8.60699533,9.8673222 8.36027299,9.62217134 8.05697737,9.62217134 Z" id="形状"></path>
            </g>
        </g>
    </g>
</svg>